<svg width="656" height="663" viewBox="0 0 656 663" fill="none" xmlns="http://www.w3.org/2000/svg">
<ellipse cx="332.249" cy="330.549" rx="316.953" ry="311.855" fill="black"/>
<mask id="mask0_4_12" style="mask-type:alpha" maskUnits="userSpaceOnUse" x="0" y="0" width="656" height="663">
<path d="M465.658 516.642C465.658 526.967 457.288 535.337 446.964 535.337C436.639 535.337 428.269 526.967 428.269 516.642C428.269 506.318 436.639 497.948 446.964 497.948C457.288 497.948 465.658 506.318 465.658 516.642Z" fill="#D9D9D9"/>
<path d="M571.026 404.477C571.026 414.801 562.656 423.171 552.332 423.171C542.007 423.171 533.637 414.801 533.637 404.477C533.637 394.152 542.007 385.782 552.332 385.782C562.656 385.782 571.026 394.152 571.026 404.477Z" fill="#D9D9D9"/>
<path d="M571.026 528.539C571.026 538.863 562.656 547.233 552.332 547.233C542.007 547.233 533.637 538.863 533.637 528.539C533.637 518.214 542.007 509.845 552.332 509.845C562.656 509.845 571.026 518.214 571.026 528.539Z" fill="#D9D9D9"/>
<path d="M501.347 100.269C501.347 110.594 492.977 118.964 482.653 118.964C472.328 118.964 463.959 110.594 463.959 100.269C463.959 89.9449 472.328 81.5751 482.653 81.5751C492.977 81.5751 501.347 89.9449 501.347 100.269Z" fill="#D9D9D9"/>
<path d="M440.166 531.938H453.762V627.109H440.166V531.938Z" fill="#D9D9D9"/>
<path d="M489.451 453.762H503.047V611.813H489.451V453.762Z" fill="#D9D9D9"/>
<path d="M554.031 156.352H567.627V249.824H554.031V156.352Z" fill="#D9D9D9"/>
<path d="M475.855 117.264H489.451V169.948H475.855V117.264Z" fill="#D9D9D9"/>
<path d="M489.451 453.762H633.907V467.358H489.451V453.762Z" fill="#D9D9D9"/>
<path d="M545.534 419.772H559.13V518.342H545.534V419.772Z" fill="#D9D9D9"/>
<path d="M426.57 112.166C426.57 122.49 418.2 130.86 407.876 130.86C397.551 130.86 389.181 122.49 389.181 112.166C389.181 101.841 397.551 93.4715 407.876 93.4715C418.2 93.4715 426.57 101.841 426.57 112.166Z" fill="#D9D9D9"/>
<path d="M401.078 127.461H414.674V169.948H401.078V127.461Z" fill="#D9D9D9"/>
<path d="M547.233 344.995H656V358.591H547.233V344.995Z" fill="#D9D9D9"/>
<path d="M554.031 351.793C554.031 355.547 550.988 358.591 547.233 358.591C543.479 358.591 540.435 355.547 540.435 351.793C540.435 348.038 543.479 344.995 547.233 344.995C550.988 344.995 554.031 348.038 554.031 351.793Z" fill="#D9D9D9"/>
<path d="M547.233 277.016H649.202V290.611H547.233V277.016Z" fill="#D9D9D9"/>
<path d="M554.031 236.228H656V249.824H554.031V236.228Z" fill="#D9D9D9"/>
<path d="M475.855 156.352H565.927V169.948H475.855V156.352Z" fill="#D9D9D9"/>
<path d="M554.031 283.813C554.031 287.568 550.988 290.611 547.233 290.611C543.479 290.611 540.435 287.568 540.435 283.813C540.435 280.059 543.479 277.016 547.233 277.016C550.988 277.016 554.031 280.059 554.031 283.813Z" fill="#D9D9D9"/>
<path d="M414.674 169.948C414.674 173.703 411.63 176.746 407.876 176.746C404.121 176.746 401.078 173.703 401.078 169.948C401.078 166.194 404.121 163.15 407.876 163.15C411.63 163.15 414.674 166.194 414.674 169.948Z" fill="#D9D9D9"/>
<path d="M351.793 67.9793C351.793 78.3039 343.423 86.6736 333.098 86.6736C322.774 86.6736 314.404 78.3039 314.404 67.9793C314.404 57.6547 322.774 49.285 333.098 49.285C343.423 49.285 351.793 57.6547 351.793 67.9793Z" fill="#D9D9D9"/>
<path d="M326.301 83.2746H339.896V169.948H326.301V83.2746Z" fill="#D9D9D9"/>
<path d="M326.301 0H339.896V52.6839H326.301V0Z" fill="#D9D9D9"/>
<path d="M339.896 169.948C339.896 173.703 336.853 176.746 333.098 176.746C329.344 176.746 326.301 173.703 326.301 169.948C326.301 166.194 329.344 163.15 333.098 163.15C336.853 163.15 339.896 166.194 339.896 169.948Z" fill="#D9D9D9"/>
<path d="M283.813 125.762C283.813 136.086 275.444 144.456 265.119 144.456C254.795 144.456 246.425 136.086 246.425 125.762C246.425 115.437 254.795 107.067 265.119 107.067C275.444 107.067 283.813 115.437 283.813 125.762Z" fill="#D9D9D9"/>
<path d="M258.321 141.057H271.917V186.943H258.321V141.057Z" fill="#D9D9D9"/>
<path d="M271.917 186.943C271.917 190.697 268.874 193.741 265.119 193.741C261.365 193.741 258.321 190.697 258.321 186.943C258.321 183.189 261.365 180.145 265.119 180.145C268.874 180.145 271.917 183.189 271.917 186.943Z" fill="#D9D9D9"/>
<path d="M197.14 125.762C197.14 136.086 188.77 144.456 178.446 144.456C168.121 144.456 159.751 136.086 159.751 125.762C159.751 115.437 168.121 107.067 178.446 107.067C188.77 107.067 197.14 115.437 197.14 125.762Z" fill="#D9D9D9"/>
<path d="M144.456 178.446C144.456 188.77 136.086 197.14 125.762 197.14C115.437 197.14 107.067 188.77 107.067 178.446C107.067 168.121 115.437 159.751 125.762 159.751C136.086 159.751 144.456 168.121 144.456 178.446Z" fill="#D9D9D9"/>
<path d="M171.648 141.057H185.244V193.741H171.648V141.057Z" fill="#D9D9D9"/>
<path d="M185.244 193.741C185.244 197.495 182.2 200.539 178.446 200.539C174.691 200.539 171.648 197.495 171.648 193.741C171.648 189.987 174.691 186.943 178.446 186.943C182.2 186.943 185.244 189.987 185.244 193.741Z" fill="#D9D9D9"/>
<path d="M214.135 20.3938H227.731V185.244H214.135V20.3938Z" fill="#D9D9D9"/>
<path d="M227.731 185.244C227.731 188.998 224.687 192.041 220.933 192.041C217.178 192.041 214.135 188.998 214.135 185.244C214.135 181.489 217.178 178.446 220.933 178.446C224.687 178.446 227.731 181.489 227.731 185.244Z" fill="#D9D9D9"/>
<path d="M13.5959 277.016H130.86V290.611H13.5959V277.016Z" fill="#D9D9D9"/>
<path d="M137.658 283.813C137.658 287.568 134.614 290.611 130.86 290.611C127.106 290.611 124.062 287.568 124.062 283.813C124.062 280.059 127.106 277.016 130.86 277.016C134.614 277.016 137.658 280.059 137.658 283.813Z" fill="#D9D9D9"/>
<path d="M0 328H130.86V341.596H0V328Z" fill="#D9D9D9"/>
<path d="M137.658 334.798C137.658 338.552 134.234 341.596 130.01 341.596C125.787 341.596 122.363 338.552 122.363 334.798C122.363 331.044 125.787 328 130.01 328C134.234 328 137.658 331.044 137.658 334.798Z" fill="#D9D9D9"/>
<path d="M18.6943 237.927H132.56V251.523H18.6943V237.927Z" fill="#D9D9D9"/>
<path d="M37.3886 171.648H110.466V185.244H37.3886V171.648Z" fill="#D9D9D9"/>
<path d="M118.964 190.342H132.56V241.326H118.964V190.342Z" fill="#D9D9D9"/>
<path d="M351.793 601.617C351.793 611.941 343.423 620.311 333.098 620.311C322.774 620.311 314.404 611.941 314.404 601.617C314.404 591.292 322.774 582.922 333.098 582.922C343.423 582.922 351.793 591.292 351.793 601.617Z" fill="#D9D9D9"/>
<path d="M326.301 618.611H339.896V662.798H326.301V618.611Z" fill="#D9D9D9"/>
<path d="M326.301 540.435H339.896V584.622H326.301V540.435Z" fill="#D9D9D9"/>
<path d="M339.896 540.435C339.896 544.19 336.853 547.233 333.098 547.233C329.344 547.233 326.301 544.19 326.301 540.435C326.301 536.681 329.344 533.637 333.098 533.637C336.853 533.637 339.896 536.681 339.896 540.435Z" fill="#D9D9D9"/>
<path d="M280.415 564.228C280.415 567.982 277.371 571.026 273.617 571.026C269.862 571.026 266.819 567.982 266.819 564.228C266.819 560.474 269.862 557.43 273.617 557.43C277.371 557.43 280.415 560.474 280.415 564.228Z" fill="#D9D9D9"/>
<path d="M132.56 491.15C132.56 494.905 129.516 497.948 125.762 497.948C122.007 497.948 118.964 494.905 118.964 491.15C118.964 487.396 122.007 484.352 125.762 484.352C129.516 484.352 132.56 487.396 132.56 491.15Z" fill="#D9D9D9"/>
<path d="M195.44 564.228C195.44 574.553 187.071 582.922 176.746 582.922C166.422 582.922 158.052 574.553 158.052 564.228C158.052 553.903 166.422 545.534 176.746 545.534C187.071 545.534 195.44 553.903 195.44 564.228Z" fill="#D9D9D9"/>
<path d="M193.741 557.43H273.617V571.026H193.741V557.43Z" fill="#D9D9D9"/>
<path d="M79.8756 416.373C69.5511 416.373 61.1813 408.003 61.1813 397.679C61.1813 387.354 69.5511 378.984 79.8756 378.984C90.2002 378.984 98.5699 387.354 98.5699 397.679C98.5699 408.003 90.2002 416.373 79.8756 416.373Z" fill="#D9D9D9"/>
<path d="M86.6736 414.674V497.948H73.0777V414.674H86.6736Z" fill="#D9D9D9"/>
<path d="M73.0777 484.352H125.762V497.948H73.0777V484.352Z" fill="#D9D9D9"/>
<path d="M419.772 564.228C419.772 574.553 411.402 582.922 401.078 582.922C390.753 582.922 382.383 574.553 382.383 564.228C382.383 553.903 390.753 545.534 401.078 545.534C411.402 545.534 419.772 553.903 419.772 564.228Z" fill="#D9D9D9"/>
</mask>
<g mask="url(#mask0_4_12)">
<ellipse cx="332.249" cy="330.549" rx="316.953" ry="311.855" fill="url(#paint0_linear_4_12)"/>
</g>
<mask id="mask1_4_12" style="mask-type:alpha" maskUnits="userSpaceOnUse" x="175" y="207" width="348" height="291">
<path d="M209.332 498H175.78L175 408.521L183.583 399.184V254.463L370.067 207H459.018V227.23H494.13L523 253.684V335.382L501.933 356.39V384.401L484.767 393.738L470.722 417.858L444.193 380.511V403.853L414.543 421.749V439.644L393.475 456.762V479.326L398.157 476.214L410.641 498H377.09V447.425L398.157 429.529V410.856L428.587 392.182V368.061L444.193 356.39L470.722 380.511L484.767 370.396V347.832L505.834 328.38V262.243L488.668 245.126H442.632V223.34H390.354V310.484H417.664V375.842H390.354V413.968H374.749V361.059H402.058V324.489H374.749V223.34L199.969 270.802V400.741L188.265 417.858L220.256 386.735V360.281H235.081V395.294L192.166 437.31V479.326L196.067 476.214L209.332 498Z" fill="#D9D9D9"/>
<path d="M262.39 498H287.359L274.874 475.436L271.753 478.548L249.126 432.642L273.314 406.965L332.614 423.305V446.647L345.879 458.318V498H363.045V448.981L350.561 435.754V409.299L273.314 387.513V375.064H352.901V336.16H338.857V361.059H256.928V399.184L228.058 431.086L262.39 498Z" fill="#D9D9D9"/>
<path d="M316.229 321.377V336.16H220.256V281.695H287.359V294.922H235.081V321.377H316.229Z" fill="#D9D9D9"/>
<path d="M308.426 259.131V301.925H352.901V259.131H308.426Z" fill="#D9D9D9"/>
<path d="M481.646 304.259V315.152H466.04V304.259H481.646Z" fill="#D9D9D9"/>
<path d="M470.722 280.139V296.479H437.17C393.475 280.139 413.762 241.235 433.269 235.011C419.536 266.134 438.991 278.064 450.435 280.139H470.722Z" fill="#D9D9D9"/>
</mask>
<g mask="url(#mask1_4_12)">
<ellipse cx="329" cy="326" rx="320" ry="315" fill="url(#paint1_linear_4_12)"/>
</g>
<path d="M339.396 601.617C339.396 605.095 336.577 607.915 333.098 607.915C329.62 607.915 326.801 605.095 326.801 601.617C326.801 598.138 329.62 595.319 333.098 595.319C336.577 595.319 339.396 598.138 339.396 601.617Z" fill="black" stroke="black"/>
<path d="M183.044 564.228C183.044 567.706 180.224 570.526 176.746 570.526C173.268 570.526 170.448 567.706 170.448 564.228C170.448 560.75 173.268 557.93 176.746 557.93C180.224 557.93 183.044 560.75 183.044 564.228Z" fill="black" stroke="black"/>
<path d="M451.562 516.643C451.562 519.182 449.503 521.241 446.964 521.241C444.424 521.241 442.365 519.182 442.365 516.643C442.365 514.103 444.424 512.044 446.964 512.044C449.503 512.044 451.562 514.103 451.562 516.643Z" fill="black" stroke="black"/>
<path d="M79.8756 403.977C76.3974 403.977 73.5777 401.157 73.5777 397.679C73.5777 394.201 76.3974 391.381 79.8756 391.381C83.3539 391.381 86.1736 394.201 86.1736 397.679C86.1736 401.157 83.3539 403.977 79.8756 403.977Z" fill="black" stroke="black"/>
<path d="M125.762 184.744C122.283 184.744 119.464 181.924 119.464 178.446C119.464 174.967 122.283 172.148 125.762 172.148C129.24 172.148 132.06 174.967 132.06 178.446C132.06 181.924 129.24 184.744 125.762 184.744Z" fill="black" stroke="black"/>
<path d="M178.446 132.06C174.967 132.06 172.148 129.24 172.148 125.762C172.148 122.283 174.967 119.464 178.446 119.464C181.924 119.464 184.744 122.283 184.744 125.762C184.744 129.24 181.924 132.06 178.446 132.06Z" fill="black" stroke="black"/>
<path d="M407.376 564.228C407.376 567.706 404.556 570.526 401.078 570.526C397.599 570.526 394.78 567.706 394.78 564.228C394.78 560.75 397.599 557.93 401.078 557.93C404.556 557.93 407.376 560.75 407.376 564.228Z" fill="black" stroke="black"/>
<path d="M339.396 67.9793C339.396 71.4575 336.577 74.2772 333.098 74.2772C329.62 74.2772 326.801 71.4575 326.801 67.9793C326.801 64.501 329.62 61.6813 333.098 61.6813C336.577 61.6813 339.396 64.501 339.396 67.9793Z" fill="black" stroke="black"/>
<path d="M271.417 125.762C271.417 129.24 268.597 132.06 265.119 132.06C261.641 132.06 258.821 129.24 258.821 125.762C258.821 122.283 261.641 119.464 265.119 119.464C268.597 119.464 271.417 122.283 271.417 125.762Z" fill="black" stroke="black"/>
<path d="M558.63 404.477C558.63 407.955 555.81 410.775 552.332 410.775C548.853 410.775 546.034 407.955 546.034 404.477C546.034 400.998 548.853 398.179 552.332 398.179C555.81 398.179 558.63 400.998 558.63 404.477Z" fill="black" stroke="black"/>
<path d="M558.63 528.539C558.63 532.017 555.81 534.837 552.332 534.837C548.853 534.837 546.034 532.017 546.034 528.539C546.034 525.061 548.853 522.241 552.332 522.241C555.81 522.241 558.63 525.061 558.63 528.539Z" fill="black" stroke="black"/>
<path d="M488.951 100.269C488.951 103.748 486.131 106.567 482.653 106.567C479.175 106.567 476.355 103.748 476.355 100.269C476.355 96.7912 479.175 93.9715 482.653 93.9715C486.131 93.9715 488.951 96.7912 488.951 100.269Z" fill="black" stroke="black"/>
<path d="M414.174 112.166C414.174 115.644 411.354 118.464 407.876 118.464C404.397 118.464 401.578 115.644 401.578 112.166C401.578 108.688 404.397 105.868 407.876 105.868C411.354 105.868 414.174 108.688 414.174 112.166Z" fill="black" stroke="black"/>
<path d="M453.262 516.643C453.262 520.121 450.442 522.94 446.964 522.94C443.485 522.94 440.666 520.121 440.666 516.643C440.666 513.164 443.485 510.345 446.964 510.345C450.442 510.345 453.262 513.164 453.262 516.643Z" fill="black" stroke="black"/>
<rect x="322" y="272" width="16.9948" height="16.9948" fill="black"/>
<defs>
<linearGradient id="paint0_linear_4_12" x1="332.249" y1="18.6943" x2="332.249" y2="642.404" gradientUnits="userSpaceOnUse">
<stop stop-color="#FCF2B7"/>
<stop offset="1" stop-color="#CFB87C"/>
</linearGradient>
<linearGradient id="paint1_linear_4_12" x1="329" y1="11" x2="329" y2="641" gradientUnits="userSpaceOnUse">
<stop stop-color="#FCF2B7"/>
<stop offset="1" stop-color="#CFB87C"/>
</linearGradient>
</defs>
</svg>
